<svg xmlns="http://www.w3.org/2000/svg" xmlns:xlink="http://www.w3.org/1999/xlink" xmlns:lucid="lucid" width="940" height="673.63"><g transform="translate(-60 -6.375000000000014)" lucid:page-tab-id="0_0"><path d="M0 0h1360v1760H0z" fill="#4384ae"/><path d="M208 80c17.67 0 32 17.9 32 40s-14.33 40-32 40h-96c-17.67 0-32-17.9-32-40s14.33-40 32-40z" stroke="#3d4752" stroke-width="2" fill="#a3d977"/><use xlink:href="#a" transform="matrix(1,0,0,1,85,85) translate(56.025 38.6)"/><path d="M370 60h160v120H370z" stroke="#3d4752" stroke-width="2" fill="#3e5778"/><path d="M386 60v120M514 60v120" stroke="#3d4752" stroke-width="2" fill="none"/><use xlink:href="#b" transform="matrix(1,0,0,1,395,65) translate(16.074999999999996 37)"/><use xlink:href="#c" transform="matrix(1,0,0,1,395,65) translate(13.574999999999996 58.6)"/><use xlink:href="#d" transform="matrix(1,0,0,1,395,65) translate(82.475 58.6)"/><use xlink:href="#e" transform="matrix(1,0,0,1,395,65) translate(42 80.20000000000002)"/><path d="M241 120h109.76" stroke="#404853" stroke-width="2" fill="none"/><path d="M241 121h-1.06l.06-1-.04-1H241zM365.76 120l-14.26 4.64v-9.28z" fill="#404853"/><path d="M369 120l-18.5 6v-12zm-16.5 3.26l10.03-3.26-10.03-3.26z" fill="#404853"/><path d="M920 194.9c0 10.34-31.34 18.72-70 18.72s-70-8.38-70-18.72V45.1c0-10.34 31.34-18.72 70-18.72s70 8.38 70 18.72z" stroke="#3d4752" stroke-width="2" fill="#3e5778"/><path d="M920 45.1c0 10.34-31.34 18.73-70 18.73s-70-8.4-70-18.73" stroke="#3d4752" stroke-width="2" fill="none"/><use xlink:href="#f" transform="matrix(1,0,0,1,785,68.82500000000002) translate(8.549999999999997 30.39999999999999)"/><use xlink:href="#g" transform="matrix(1,0,0,1,785,68.82500000000002) translate(71.45 30.39999999999999)"/><use xlink:href="#h" transform="matrix(1,0,0,1,785,68.82500000000002) translate(57.5 51.99999999999999)"/><use xlink:href="#i" transform="matrix(1,0,0,1,785,68.82500000000002) translate(-4.425000000000011 73.6)"/><use xlink:href="#j" transform="matrix(1,0,0,1,785,68.82500000000002) translate(36.05 95.20000000000002)"/><use xlink:href="#d" transform="matrix(1,0,0,1,785,68.82500000000002) translate(80 95.20000000000002)"/><use xlink:href="#k" transform="matrix(1,0,0,1,785,68.82500000000002) translate(18.074999999999996 116.80000000000001)"/><path d="M531 120h229.76" stroke="#404853" stroke-width="2" fill="none"/><path d="M531 121h-1v-2h1zM775.76 120l-14.26 4.64v-9.28z" fill="#404853"/><path d="M779 120l-18.5 6v-12zm-16.5 3.26l10.03-3.26-10.03-3.26z" fill="#404853"/><path d="M80 320h160v120H80z" stroke="#3d4752" stroke-width="2" fill="#3e5778"/><path d="M96 320v120m128-120v120" stroke="#3d4752" stroke-width="2" fill="none"/><use xlink:href="#l" transform="matrix(1,0,0,1,105,325) translate(8.599999999999994 26.19999999999999)"/><use xlink:href="#m" transform="matrix(1,0,0,1,105,325) translate(47.5 26.19999999999999)"/><use xlink:href="#n" transform="matrix(1,0,0,1,105,325) translate(9.600000000000001 47.79999999999999)"/><use xlink:href="#o" transform="matrix(1,0,0,1,105,325) translate(54.45 47.79999999999999)"/><use xlink:href="#p" transform="matrix(1,0,0,1,105,325) translate(74.44999999999999 47.79999999999999)"/><use xlink:href="#q" transform="matrix(1,0,0,1,105,325) translate(30.025 69.39999999999999)"/><use xlink:href="#r" transform="matrix(1,0,0,1,105,325) translate(14.549999999999997 91)"/><path d="M530 300.1c-10.5 0-19 35.77-19 79.9s8.5 79.9 19 79.9H359c-10.5 0-19-35.77-19-79.9s8.5-79.9 19-79.9z" stroke="#3d4752" stroke-width="2" fill="#3e5778"/><use xlink:href="#s" transform="matrix(1,0,0,1,345,305.09999999999997) translate(32.1 24.6)"/><use xlink:href="#t" transform="matrix(1,0,0,1,345,305.09999999999997) translate(92.05000000000001 24.6)"/><use xlink:href="#u" transform="matrix(1,0,0,1,345,305.09999999999997) translate(114.94999999999999 24.6)"/><use xlink:href="#v" transform="matrix(1,0,0,1,345,305.09999999999997) translate(28.099999999999994 46.2)"/><use xlink:href="#w" transform="matrix(1,0,0,1,345,305.09999999999997) translate(116 46.2)"/><use xlink:href="#x" transform="matrix(1,0,0,1,345,305.09999999999997) translate(32.25 67.80000000000001)"/><use xlink:href="#y" transform="matrix(1,0,0,1,345,305.09999999999997) translate(62.9 67.80000000000001)"/><use xlink:href="#z" transform="matrix(1,0,0,1,345,305.09999999999997) translate(115.85 67.80000000000001)"/><use xlink:href="#A" transform="matrix(1,0,0,1,345,305.09999999999997) translate(26.125 89.40000000000002)"/><use xlink:href="#B" transform="matrix(1,0,0,1,345,305.09999999999997) translate(117.97500000000001 89.40000000000002)"/><use xlink:href="#C" transform="matrix(1,0,0,1,345,305.09999999999997) translate(20.57499999999999 111.00000000000001)"/><use xlink:href="#D" transform="matrix(1,0,0,1,345,305.09999999999997) translate(70.525 132.6)"/><path d="M850 214.63V230H160v70.76" stroke="#404853" stroke-width="2" fill="none"/><path d="M850 213.63l1-.04v1.03h-2v-1.04zM160 315.76l-4.64-14.26h9.28z" fill="#404853"/><path d="M160 319l-6-18.5h12zm-3.26-16.5l3.26 10.03 3.26-10.03z" fill="#404853"/><path d="M241 380h79.76" stroke="#404853" stroke-width="2" fill="none"/><path d="M241 381h-1v-2h1zM335.76 380l-14.26 4.64v-9.28z" fill="#404853"/><path d="M339 380l-18.5 6v-12zm-16.5 3.26l10.03-3.26-10.03-3.26z" fill="#404853"/><path d="M580 320h160v120c-26.72-20.04-43.36-20.04-53.44-20.04-16 0-37.28 20.04-53.28 20.04-9.92 0-26.72 0-53.28-20.04z" stroke="#3d4752" stroke-width="2" fill="#3e5778"/><g><use xlink:href="#E" transform="matrix(1,0,0,1,585,325) translate(17.099999999999994 37.8)"/><use xlink:href="#F" transform="matrix(1,0,0,1,585,325) translate(51.05 37.8)"/><use xlink:href="#G" transform="matrix(1,0,0,1,585,325) translate(24.375 59.4)"/><use xlink:href="#H" transform="matrix(1,0,0,1,585,325) translate(65.67500000000001 59.4)"/></g><path d="M512 380h48.76" stroke="#404853" stroke-width="2" fill="none"/><path d="M512 381h-.97l-.03-1v-1h1zM575.76 380l-14.26 4.64v-9.28z" fill="#404853"/><path d="M579 380l-18.5 6v-12zm-16.5 3.26l10.03-3.26-10.03-3.26z" fill="#404853"/><path d="M820 320h160v120H820z" stroke="#3d4752" stroke-width="2" fill="#3e5778"/><g><use xlink:href="#I" transform="matrix(1,0,0,1,825,325) translate(13.399999999999991 26.19999999999999)"/><use xlink:href="#J" transform="matrix(1,0,0,1,825,325) translate(54.699999999999996 26.19999999999999)"/><use xlink:href="#K" transform="matrix(1,0,0,1,825,325) translate(25 47.79999999999999)"/><use xlink:href="#o" transform="matrix(1,0,0,1,825,325) translate(80 47.79999999999999)"/><use xlink:href="#L" transform="matrix(1,0,0,1,825,325) translate(100 47.79999999999999)"/><use xlink:href="#M" transform="matrix(1,0,0,1,825,325) translate(5.049999999999997 69.39999999999999)"/><use xlink:href="#N" transform="matrix(1,0,0,1,825,325) translate(75.05 69.39999999999999)"/><use xlink:href="#O" transform="matrix(1,0,0,1,825,325) translate(124.95 69.39999999999999)"/><use xlink:href="#P" transform="matrix(1,0,0,1,825,325) translate(24.775 91)"/><use xlink:href="#Q" transform="matrix(1,0,0,1,825,325) translate(58.725 91)"/><use xlink:href="#R" transform="matrix(1,0,0,1,825,325) translate(97.275 91)"/></g><path d="M741 380h59.76" stroke="#404853" stroke-width="2" fill="none"/><path d="M741 381h-1v-2h1zM815.76 380l-14.26 4.64v-9.28z" fill="#404853"/><path d="M819 380l-18.5 6v-12zm-16.5 3.26l10.03-3.26-10.03-3.26z" fill="#404853"/><path d="M80 520h200v140H80z" stroke="#3d4752" stroke-width="2" fill="#3e5778"/><path d="M100 520v140m160-140v140" stroke="#3d4752" stroke-width="2" fill="none"/><g><use xlink:href="#E" transform="matrix(1,0,0,1,110,525) translate(11.399999999999991 47)"/><use xlink:href="#S" transform="matrix(1,0,0,1,110,525) translate(45.349999999999994 47)"/><use xlink:href="#T" transform="matrix(1,0,0,1,110,525) translate(93.3 47)"/><use xlink:href="#U" transform="matrix(1,0,0,1,110,525) translate(4.549999999999997 68.60000000000001)"/><use xlink:href="#V" transform="matrix(1,0,0,1,110,525) translate(39.55 68.60000000000001)"/><use xlink:href="#W" transform="matrix(1,0,0,1,110,525) translate(103.5 68.60000000000001)"/><use xlink:href="#X" transform="matrix(1,0,0,1,110,525) translate(7.574999999999996 90.20000000000002)"/><use xlink:href="#Y" transform="matrix(1,0,0,1,110,525) translate(85.525 90.20000000000002)"/><use xlink:href="#Z" transform="matrix(1,0,0,1,110,525) translate(104.475 90.20000000000002)"/></g><path d="M900 441v39H180v20.76" stroke="#404853" stroke-width="2" fill="none"/><path d="M901 441h-2v-1h2zM180 515.76l-4.64-14.26h9.28z" fill="#404853"/><path d="M180 519l-6-18.5h12zm-3.26-16.5l3.26 10.03 3.26-10.03z" fill="#404853"/><path d="M528 550c17.67 0 32 17.9 32 40s-14.33 40-32 40h-96c-17.67 0-32-17.9-32-40s14.33-40 32-40z" stroke="#3d4752" stroke-width="2" fill="#c92d39"/><g><use xlink:href="#aa" transform="matrix(1,0,0,1,405,555) translate(59 38.6)"/></g><path d="M281 590h99.76" stroke="#404853" stroke-width="2" fill="none"/><path d="M281 591h-1v-2h1zM395.76 590l-14.26 4.64v-9.28z" fill="#404853"/><path d="M399 590l-18.5 6v-12zm-16.5 3.26l10.03-3.26-10.03-3.26z" fill="#404853"/><defs><path fill="#fff" d="M185-189c-5-48-123-54-124 2 14 75 158 14 163 119 3 78-121 87-175 55-17-10-28-26-33-46l33-7c5 56 141 63 141-1 0-78-155-14-162-118-5-82 145-84 179-34 5 7 8 16 11 25" id="ab"/><path fill="#fff" d="M59-47c-2 24 18 29 38 22v24C64 9 27 4 27-40v-127H5v-23h24l9-43h21v43h35v23H59v120" id="ac"/><path fill="#fff" d="M141-36C126-15 110 5 73 4 37 3 15-17 15-53c-1-64 63-63 125-63 3-35-9-54-41-54-24 1-41 7-42 31l-33-3c5-37 33-52 76-52 45 0 72 20 72 64v82c-1 20 7 32 28 27v20c-31 9-61-2-59-35zM48-53c0 20 12 33 32 33 41-3 63-29 60-74-43 2-92-5-92 41" id="ad"/><path fill="#fff" d="M114-163C36-179 61-72 57 0H25l-1-190h30c1 12-1 29 2 39 6-27 23-49 58-41v29" id="ae"/><g id="a"><use transform="matrix(0.05,0,0,0.05,0,0)" xlink:href="#ab"/><use transform="matrix(0.05,0,0,0.05,12,0)" xlink:href="#ac"/><use transform="matrix(0.05,0,0,0.05,17,0)" xlink:href="#ad"/><use transform="matrix(0.05,0,0,0.05,27,0)" xlink:href="#ae"/><use transform="matrix(0.05,0,0,0.05,32.95,0)" xlink:href="#ac"/></g><path fill="#fff" d="M212-179c-10-28-35-45-73-45-59 0-87 40-87 99 0 60 29 101 89 101 43 0 62-24 78-52l27 14C228-24 195 4 139 4 59 4 22-46 18-125c-6-104 99-153 187-111 19 9 31 26 39 46" id="af"/><path fill="#fff" d="M84 4C-5 8 30-112 23-190h32v120c0 31 7 50 39 49 72-2 45-101 50-169h31l1 190h-30c-1-10 1-25-2-33-11 22-28 36-60 37" id="ag"/><path fill="#fff" d="M135-143c-3-34-86-38-87 0 15 53 115 12 119 90S17 21 10-45l28-5c4 36 97 45 98 0-10-56-113-15-118-90-4-57 82-63 122-42 12 7 21 19 24 35" id="ah"/><path fill="#fff" d="M100-194c62-1 85 37 85 99 1 63-27 99-86 99S16-35 15-95c0-66 28-99 85-99zM99-20c44 1 53-31 53-75 0-43-8-75-51-75s-53 32-53 75 10 74 51 75" id="ai"/><path fill="#fff" d="M210-169c-67 3-38 105-44 169h-31v-121c0-29-5-50-35-48C34-165 62-65 56 0H25l-1-190h30c1 10-1 24 2 32 10-44 99-50 107 0 11-21 27-35 58-36 85-2 47 119 55 194h-31v-121c0-29-5-49-35-48" id="aj"/><path fill="#fff" d="M100-194c63 0 86 42 84 106H49c0 40 14 67 53 68 26 1 43-12 49-29l28 8c-11 28-37 45-77 45C44 4 14-33 15-96c1-61 26-98 85-98zm52 81c6-60-76-77-97-28-3 7-6 17-6 28h103" id="ak"/><g id="b"><use transform="matrix(0.05,0,0,0.05,0,0)" xlink:href="#af"/><use transform="matrix(0.05,0,0,0.05,12.950000000000001,0)" xlink:href="#ag"/><use transform="matrix(0.05,0,0,0.05,22.950000000000003,0)" xlink:href="#ah"/><use transform="matrix(0.05,0,0,0.05,31.950000000000003,0)" xlink:href="#ac"/><use transform="matrix(0.05,0,0,0.05,36.95,0)" xlink:href="#ai"/><use transform="matrix(0.05,0,0,0.05,46.95,0)" xlink:href="#aj"/><use transform="matrix(0.05,0,0,0.05,61.900000000000006,0)" xlink:href="#ak"/><use transform="matrix(0.05,0,0,0.05,71.9,0)" xlink:href="#ae"/></g><path fill="#fff" d="M85-194c31 0 48 13 60 33l-1-100h32l1 261h-30c-2-10 0-23-3-31C134-8 116 4 85 4 32 4 16-35 15-94c0-66 23-100 70-100zm9 24c-40 0-46 34-46 75 0 40 6 74 45 74 42 0 51-32 51-76 0-42-9-74-50-73" id="al"/><g id="c"><use transform="matrix(0.05,0,0,0.05,0,0)" xlink:href="#af"/><use transform="matrix(0.05,0,0,0.05,12.950000000000001,0)" xlink:href="#ae"/><use transform="matrix(0.05,0,0,0.05,18.900000000000002,0)" xlink:href="#ak"/><use transform="matrix(0.05,0,0,0.05,28.900000000000002,0)" xlink:href="#ad"/><use transform="matrix(0.05,0,0,0.05,38.900000000000006,0)" xlink:href="#ac"/><use transform="matrix(0.05,0,0,0.05,43.900000000000006,0)" xlink:href="#ak"/><use transform="matrix(0.05,0,0,0.05,53.900000000000006,0)" xlink:href="#al"/></g><path fill="#fff" d="M24-231v-30h32v30H24zM24 0v-190h32V0H24" id="am"/><path fill="#fff" d="M117-194c89-4 53 116 60 194h-32v-121c0-31-8-49-39-48C34-167 62-67 57 0H25l-1-190h30c1 10-1 24 2 32 11-22 29-35 61-36" id="an"/><g id="d"><use transform="matrix(0.05,0,0,0.05,0,0)" xlink:href="#am"/><use transform="matrix(0.05,0,0,0.05,3.95,0)" xlink:href="#an"/></g><path fill="#fff" d="M143 4C61 4 22-44 18-125c-5-107 100-154 193-111 17 8 29 25 37 43l-32 9c-13-25-37-40-76-40-61 0-88 39-88 99 0 61 29 100 91 101 35 0 62-11 79-27v-45h-74v-28h105v86C228-13 192 4 143 4" id="ao"/><path fill="#fff" d="M30-248c87 1 191-15 191 75 0 78-77 80-158 76V0H30v-248zm33 125c57 0 124 11 124-50 0-59-68-47-124-48v98" id="ap"/><g id="e"><use transform="matrix(0.05,0,0,0.05,0,0)" xlink:href="#ao"/><use transform="matrix(0.05,0,0,0.05,14,0)" xlink:href="#ap"/></g><path fill="#fff" d="M233-177c-1 41-23 64-60 70L243 0h-38l-65-103H63V0H30v-248c88 3 205-21 203 71zM63-129c60-2 137 13 137-47 0-61-80-42-137-45v92" id="aq"/><path fill="#fff" d="M96-169c-40 0-48 33-48 73s9 75 48 75c24 0 41-14 43-38l32 2c-6 37-31 61-74 61-59 0-76-41-82-99-10-93 101-131 147-64 4 7 5 14 7 22l-32 3c-4-21-16-35-41-35" id="ar"/><g id="f"><use transform="matrix(0.05,0,0,0.05,0,0)" xlink:href="#aq"/><use transform="matrix(0.05,0,0,0.05,12.950000000000001,0)" xlink:href="#ak"/><use transform="matrix(0.05,0,0,0.05,22.950000000000003,0)" xlink:href="#ar"/><use transform="matrix(0.05,0,0,0.05,31.950000000000003,0)" xlink:href="#ai"/><use transform="matrix(0.05,0,0,0.05,41.95,0)" xlink:href="#ae"/><use transform="matrix(0.05,0,0,0.05,47.900000000000006,0)" xlink:href="#al"/></g><g id="g"><use transform="matrix(0.05,0,0,0.05,0,0)" xlink:href="#ad"/><use transform="matrix(0.05,0,0,0.05,10,0)" xlink:href="#al"/><use transform="matrix(0.05,0,0,0.05,20,0)" xlink:href="#al"/><use transform="matrix(0.05,0,0,0.05,30,0)" xlink:href="#ak"/><use transform="matrix(0.05,0,0,0.05,40,0)" xlink:href="#al"/></g><g id="h"><use transform="matrix(0.05,0,0,0.05,0,0)" xlink:href="#ac"/><use transform="matrix(0.05,0,0,0.05,5,0)" xlink:href="#ai"/></g><path fill="#fff" d="M205 0l-28-72H64L36 0H1l101-248h38L239 0h-34zm-38-99l-47-123c-12 45-31 82-46 123h93" id="as"/><g id="i"><use transform="matrix(0.05,0,0,0.05,0,0)" xlink:href="#af"/><use transform="matrix(0.05,0,0,0.05,12.950000000000001,0)" xlink:href="#ag"/><use transform="matrix(0.05,0,0,0.05,22.950000000000003,0)" xlink:href="#ah"/><use transform="matrix(0.05,0,0,0.05,31.950000000000003,0)" xlink:href="#ac"/><use transform="matrix(0.05,0,0,0.05,36.95,0)" xlink:href="#ai"/><use transform="matrix(0.05,0,0,0.05,46.95,0)" xlink:href="#aj"/><use transform="matrix(0.05,0,0,0.05,61.900000000000006,0)" xlink:href="#ak"/><use transform="matrix(0.05,0,0,0.05,71.9,0)" xlink:href="#ae"/><use transform="matrix(0.05,0,0,0.05,77.85000000000001,0)" xlink:href="#ah"/><use transform="matrix(0.05,0,0,0.05,86.85000000000001,0)" xlink:href="#as"/><use transform="matrix(0.05,0,0,0.05,98.85000000000001,0)" xlink:href="#al"/><use transform="matrix(0.05,0,0,0.05,108.85000000000001,0)" xlink:href="#al"/><use transform="matrix(0.05,0,0,0.05,118.85000000000001,0)" xlink:href="#ak"/><use transform="matrix(0.05,0,0,0.05,128.85000000000002,0)" xlink:href="#al"/></g><path fill="#fff" d="M115-194c53 0 69 39 70 98 0 66-23 100-70 100C84 3 66-7 56-30L54 0H23l1-261h32v101c10-23 28-34 59-34zm-8 174c40 0 45-34 45-75 0-40-5-75-45-74-42 0-51 32-51 76 0 43 10 73 51 73" id="at"/><path fill="#fff" d="M24 0v-261h32V0H24" id="au"/><g id="j"><use transform="matrix(0.05,0,0,0.05,0,0)" xlink:href="#ac"/><use transform="matrix(0.05,0,0,0.05,5,0)" xlink:href="#ad"/><use transform="matrix(0.05,0,0,0.05,15,0)" xlink:href="#at"/><use transform="matrix(0.05,0,0,0.05,25,0)" xlink:href="#au"/><use transform="matrix(0.05,0,0,0.05,28.950000000000003,0)" xlink:href="#ak"/></g><path fill="#fff" d="M30-248c118-7 216 8 213 122C240-48 200 0 122 0H30v-248zM63-27c89 8 146-16 146-99s-60-101-146-95v194" id="av"/><path fill="#fff" d="M179-190L93 31C79 59 56 82 12 73V49c39 6 53-20 64-50L1-190h34L92-34l54-156h33" id="aw"/><g id="k"><use transform="matrix(0.05,0,0,0.05,0,0)" xlink:href="#av"/><use transform="matrix(0.05,0,0,0.05,12.950000000000001,0)" xlink:href="#aw"/><use transform="matrix(0.05,0,0,0.05,21.950000000000003,0)" xlink:href="#an"/><use transform="matrix(0.05,0,0,0.05,31.950000000000003,0)" xlink:href="#af"/><use transform="matrix(0.05,0,0,0.05,44.900000000000006,0)" xlink:href="#ag"/><use transform="matrix(0.05,0,0,0.05,54.900000000000006,0)" xlink:href="#ah"/><use transform="matrix(0.05,0,0,0.05,63.900000000000006,0)" xlink:href="#ac"/><use transform="matrix(0.05,0,0,0.05,68.9,0)" xlink:href="#ai"/><use transform="matrix(0.05,0,0,0.05,78.9,0)" xlink:href="#aj"/></g><path fill="#fff" d="M63-220v92h138v28H63V0H30v-248h175v28H63" id="ax"/><path fill="#fff" d="M108 0H70L1-190h34L89-25l56-165h34" id="ay"/><g id="l"><use transform="matrix(0.05,0,0,0.05,0,0)" xlink:href="#ax"/><use transform="matrix(0.05,0,0,0.05,10.950000000000001,0)" xlink:href="#am"/><use transform="matrix(0.05,0,0,0.05,14.9,0)" xlink:href="#ay"/><use transform="matrix(0.05,0,0,0.05,23.900000000000002,0)" xlink:href="#ak"/></g><g id="m"><use transform="matrix(0.05,0,0,0.05,0,0)" xlink:href="#aj"/><use transform="matrix(0.05,0,0,0.05,14.950000000000001,0)" xlink:href="#am"/><use transform="matrix(0.05,0,0,0.05,18.900000000000002,0)" xlink:href="#an"/><use transform="matrix(0.05,0,0,0.05,28.900000000000002,0)" xlink:href="#ag"/><use transform="matrix(0.05,0,0,0.05,38.900000000000006,0)" xlink:href="#ac"/><use transform="matrix(0.05,0,0,0.05,43.900000000000006,0)" xlink:href="#ak"/></g><g id="n"><use transform="matrix(0.05,0,0,0.05,0,0)" xlink:href="#ac"/><use transform="matrix(0.05,0,0,0.05,5,0)" xlink:href="#am"/><use transform="matrix(0.05,0,0,0.05,8.95,0)" xlink:href="#aj"/><use transform="matrix(0.05,0,0,0.05,23.9,0)" xlink:href="#ak"/><use transform="matrix(0.05,0,0,0.05,33.9,0)" xlink:href="#ae"/></g><g id="o"><use transform="matrix(0.05,0,0,0.05,0,0)" xlink:href="#ac"/><use transform="matrix(0.05,0,0,0.05,5,0)" xlink:href="#ai"/></g><g id="p"><use transform="matrix(0.05,0,0,0.05,0,0)" xlink:href="#ae"/><use transform="matrix(0.05,0,0,0.05,5.95,0)" xlink:href="#ag"/><use transform="matrix(0.05,0,0,0.05,15.949999999999998,0)" xlink:href="#an"/></g><g id="q"><use transform="matrix(0.05,0,0,0.05,0,0)" xlink:href="#ah"/><use transform="matrix(0.05,0,0,0.05,9,0)" xlink:href="#ac"/><use transform="matrix(0.05,0,0,0.05,14,0)" xlink:href="#ai"/><use transform="matrix(0.05,0,0,0.05,24,0)" xlink:href="#ae"/><use transform="matrix(0.05,0,0,0.05,29.950000000000003,0)" xlink:href="#ak"/><use transform="matrix(0.05,0,0,0.05,39.95,0)" xlink:href="#al"/></g><path fill="#fff" d="M115-194c55 1 70 41 70 98S169 2 115 4C84 4 66-9 55-30l1 105H24l-1-265h31l2 30c10-21 28-34 59-34zm-8 174c40 0 45-34 45-75s-6-73-45-74c-42 0-51 32-51 76 0 43 10 73 51 73" id="az"/><g id="r"><use transform="matrix(0.05,0,0,0.05,0,0)" xlink:href="#az"/><use transform="matrix(0.05,0,0,0.05,10,0)" xlink:href="#ae"/><use transform="matrix(0.05,0,0,0.05,15.949999999999998,0)" xlink:href="#ai"/><use transform="matrix(0.05,0,0,0.05,25.950000000000003,0)" xlink:href="#ar"/><use transform="matrix(0.05,0,0,0.05,34.95,0)" xlink:href="#ak"/><use transform="matrix(0.05,0,0,0.05,44.95,0)" xlink:href="#al"/><use transform="matrix(0.05,0,0,0.05,54.95,0)" xlink:href="#ag"/><use transform="matrix(0.05,0,0,0.05,64.95,0)" xlink:href="#ae"/><use transform="matrix(0.05,0,0,0.05,70.9,0)" xlink:href="#ak"/></g><path fill="#fff" d="M106-169C34-169 62-67 57 0H25v-261h32l-1 103c12-21 28-36 61-36 89 0 53 116 60 194h-32v-121c2-32-8-49-39-48" id="aA"/><g id="s"><use transform="matrix(0.05,0,0,0.05,0,0)" xlink:href="#ao"/><use transform="matrix(0.05,0,0,0.05,14,0)" xlink:href="#ad"/><use transform="matrix(0.05,0,0,0.05,24,0)" xlink:href="#ac"/><use transform="matrix(0.05,0,0,0.05,29,0)" xlink:href="#aA"/><use transform="matrix(0.05,0,0,0.05,39,0)" xlink:href="#ak"/><use transform="matrix(0.05,0,0,0.05,49,0)" xlink:href="#ae"/></g><g id="t"><use transform="matrix(0.05,0,0,0.05,0,0)" xlink:href="#ad"/><use transform="matrix(0.05,0,0,0.05,10,0)" xlink:href="#au"/><use transform="matrix(0.05,0,0,0.05,13.949999999999998,0)" xlink:href="#au"/></g><path fill="#fff" d="M206 0h-36l-40-164L89 0H53L-1-190h32L70-26l43-164h34l41 164 42-164h31" id="aB"/><g id="u"><use transform="matrix(0.05,0,0,0.05,0,0)" xlink:href="#an"/><use transform="matrix(0.05,0,0,0.05,10,0)" xlink:href="#ak"/><use transform="matrix(0.05,0,0,0.05,20,0)" xlink:href="#aB"/></g><g id="v"><use transform="matrix(0.05,0,0,0.05,0,0)" xlink:href="#ar"/><use transform="matrix(0.05,0,0,0.05,9,0)" xlink:href="#ag"/><use transform="matrix(0.05,0,0,0.05,19,0)" xlink:href="#ah"/><use transform="matrix(0.05,0,0,0.05,28,0)" xlink:href="#ac"/><use transform="matrix(0.05,0,0,0.05,33,0)" xlink:href="#ai"/><use transform="matrix(0.05,0,0,0.05,43,0)" xlink:href="#aj"/><use transform="matrix(0.05,0,0,0.05,57.95,0)" xlink:href="#ak"/><use transform="matrix(0.05,0,0,0.05,67.95,0)" xlink:href="#ae"/><use transform="matrix(0.05,0,0,0.05,73.9,0)" xlink:href="#ah"/></g><path fill="#fff" d="M101-234c-31-9-42 10-38 44h38v23H63V0H32v-167H5v-23h27c-7-52 17-82 69-68v24" id="aC"/><g id="w"><use transform="matrix(0.05,0,0,0.05,0,0)" xlink:href="#aC"/><use transform="matrix(0.05,0,0,0.05,5,0)" xlink:href="#ae"/><use transform="matrix(0.05,0,0,0.05,10.95,0)" xlink:href="#ai"/><use transform="matrix(0.05,0,0,0.05,20.95,0)" xlink:href="#aj"/></g><g id="x"><use transform="matrix(0.05,0,0,0.05,0,0)" xlink:href="#ao"/><use transform="matrix(0.05,0,0,0.05,14,0)" xlink:href="#ap"/></g><g id="y"><use transform="matrix(0.05,0,0,0.05,0,0)" xlink:href="#ac"/><use transform="matrix(0.05,0,0,0.05,5,0)" xlink:href="#ad"/><use transform="matrix(0.05,0,0,0.05,15,0)" xlink:href="#at"/><use transform="matrix(0.05,0,0,0.05,25,0)" xlink:href="#au"/><use transform="matrix(0.05,0,0,0.05,28.950000000000003,0)" xlink:href="#ak"/><use transform="matrix(0.05,0,0,0.05,38.95,0)" xlink:href="#ah"/></g><g id="z"><use transform="matrix(0.05,0,0,0.05,0,0)" xlink:href="#aB"/><use transform="matrix(0.05,0,0,0.05,12.950000000000001,0)" xlink:href="#am"/><use transform="matrix(0.05,0,0,0.05,16.900000000000002,0)" xlink:href="#ac"/><use transform="matrix(0.05,0,0,0.05,21.900000000000002,0)" xlink:href="#aA"/></g><g id="A"><use transform="matrix(0.05,0,0,0.05,0,0)" xlink:href="#af"/><use transform="matrix(0.05,0,0,0.05,12.950000000000001,0)" xlink:href="#ag"/><use transform="matrix(0.05,0,0,0.05,22.950000000000003,0)" xlink:href="#ah"/><use transform="matrix(0.05,0,0,0.05,31.950000000000003,0)" xlink:href="#ac"/><use transform="matrix(0.05,0,0,0.05,36.95,0)" xlink:href="#ai"/><use transform="matrix(0.05,0,0,0.05,46.95,0)" xlink:href="#aj"/><use transform="matrix(0.05,0,0,0.05,61.900000000000006,0)" xlink:href="#ak"/><use transform="matrix(0.05,0,0,0.05,71.9,0)" xlink:href="#ae"/><use transform="matrix(0.05,0,0,0.05,77.85000000000001,0)" xlink:href="#ah"/></g><g id="B"><use transform="matrix(0.05,0,0,0.05,0,0)" xlink:href="#aC"/><use transform="matrix(0.05,0,0,0.05,5,0)" xlink:href="#ae"/><use transform="matrix(0.05,0,0,0.05,10.95,0)" xlink:href="#ai"/><use transform="matrix(0.05,0,0,0.05,20.95,0)" xlink:href="#aj"/></g><g id="C"><use transform="matrix(0.05,0,0,0.05,0,0)" xlink:href="#af"/><use transform="matrix(0.05,0,0,0.05,12.950000000000001,0)" xlink:href="#ag"/><use transform="matrix(0.05,0,0,0.05,22.950000000000003,0)" xlink:href="#ah"/><use transform="matrix(0.05,0,0,0.05,31.950000000000003,0)" xlink:href="#ac"/><use transform="matrix(0.05,0,0,0.05,36.95,0)" xlink:href="#ai"/><use transform="matrix(0.05,0,0,0.05,46.95,0)" xlink:href="#aj"/><use transform="matrix(0.05,0,0,0.05,61.900000000000006,0)" xlink:href="#ak"/><use transform="matrix(0.05,0,0,0.05,71.9,0)" xlink:href="#ae"/><use transform="matrix(0.05,0,0,0.05,77.85000000000001,0)" xlink:href="#ah"/><use transform="matrix(0.05,0,0,0.05,86.85000000000001,0)" xlink:href="#as"/><use transform="matrix(0.05,0,0,0.05,98.85000000000001,0)" xlink:href="#al"/><use transform="matrix(0.05,0,0,0.05,108.85000000000001,0)" xlink:href="#al"/><use transform="matrix(0.05,0,0,0.05,118.85000000000001,0)" xlink:href="#ak"/><use transform="matrix(0.05,0,0,0.05,128.85000000000002,0)" xlink:href="#al"/></g><g id="D"><use transform="matrix(0.05,0,0,0.05,0,0)" xlink:href="#ac"/><use transform="matrix(0.05,0,0,0.05,5,0)" xlink:href="#ad"/><use transform="matrix(0.05,0,0,0.05,15,0)" xlink:href="#at"/><use transform="matrix(0.05,0,0,0.05,25,0)" xlink:href="#au"/><use transform="matrix(0.05,0,0,0.05,28.950000000000003,0)" xlink:href="#ak"/></g><path fill="#fff" d="M240 0l2-218c-23 76-54 145-80 218h-23L58-218 59 0H30v-248h44l77 211c21-75 51-140 76-211h43V0h-30" id="aD"/><g id="E"><use transform="matrix(0.05,0,0,0.05,0,0)" xlink:href="#aD"/><use transform="matrix(0.05,0,0,0.05,14.950000000000001,0)" xlink:href="#ao"/></g><path fill="#fff" d="M30 0v-248h187v28H63v79h144v27H63v87h162V0H30" id="aE"/><g id="F"><use transform="matrix(0.05,0,0,0.05,0,0)" xlink:href="#aE"/><use transform="matrix(0.05,0,0,0.05,12,0)" xlink:href="#an"/><use transform="matrix(0.05,0,0,0.05,22,0)" xlink:href="#ac"/><use transform="matrix(0.05,0,0,0.05,27,0)" xlink:href="#ak"/><use transform="matrix(0.05,0,0,0.05,37,0)" xlink:href="#ae"/><use transform="matrix(0.05,0,0,0.05,42.95,0)" xlink:href="#az"/><use transform="matrix(0.05,0,0,0.05,52.95,0)" xlink:href="#ae"/><use transform="matrix(0.05,0,0,0.05,58.900000000000006,0)" xlink:href="#am"/><use transform="matrix(0.05,0,0,0.05,62.85,0)" xlink:href="#ah"/><use transform="matrix(0.05,0,0,0.05,71.85000000000001,0)" xlink:href="#ak"/></g><path fill="#fff" d="M195 0l-74-108L45 0H8l94-129-87-119h37l69 98 67-98h37l-84 118L233 0h-38" id="aF"/><path fill="#fff" d="M30 0v-248h33v221h125V0H30" id="aG"/><g id="G"><use transform="matrix(0.05,0,0,0.05,0,0)" xlink:href="#aF"/><use transform="matrix(0.05,0,0,0.05,12,0)" xlink:href="#aD"/><use transform="matrix(0.05,0,0,0.05,26.950000000000003,0)" xlink:href="#aG"/></g><g id="H"><use transform="matrix(0.05,0,0,0.05,0,0)" xlink:href="#ar"/><use transform="matrix(0.05,0,0,0.05,9,0)" xlink:href="#ae"/><use transform="matrix(0.05,0,0,0.05,14.949999999999998,0)" xlink:href="#ak"/><use transform="matrix(0.05,0,0,0.05,24.95,0)" xlink:href="#ad"/><use transform="matrix(0.05,0,0,0.05,34.95,0)" xlink:href="#ac"/><use transform="matrix(0.05,0,0,0.05,39.95,0)" xlink:href="#ak"/><use transform="matrix(0.05,0,0,0.05,49.95,0)" xlink:href="#al"/></g><g id="I"><use transform="matrix(0.05,0,0,0.05,0,0)" xlink:href="#aF"/><use transform="matrix(0.05,0,0,0.05,12,0)" xlink:href="#aD"/><use transform="matrix(0.05,0,0,0.05,26.950000000000003,0)" xlink:href="#aG"/></g><g id="J"><use transform="matrix(0.05,0,0,0.05,0,0)" xlink:href="#av"/><use transform="matrix(0.05,0,0,0.05,12.950000000000001,0)" xlink:href="#ai"/><use transform="matrix(0.05,0,0,0.05,22.950000000000003,0)" xlink:href="#ar"/><use transform="matrix(0.05,0,0,0.05,31.950000000000003,0)" xlink:href="#ag"/><use transform="matrix(0.05,0,0,0.05,41.95,0)" xlink:href="#aj"/><use transform="matrix(0.05,0,0,0.05,56.900000000000006,0)" xlink:href="#ak"/><use transform="matrix(0.05,0,0,0.05,66.9,0)" xlink:href="#an"/><use transform="matrix(0.05,0,0,0.05,76.9,0)" xlink:href="#ac"/></g><g id="K"><use transform="matrix(0.05,0,0,0.05,0,0)" xlink:href="#ad"/><use transform="matrix(0.05,0,0,0.05,10,0)" xlink:href="#al"/><use transform="matrix(0.05,0,0,0.05,20,0)" xlink:href="#al"/><use transform="matrix(0.05,0,0,0.05,30,0)" xlink:href="#ak"/><use transform="matrix(0.05,0,0,0.05,40,0)" xlink:href="#al"/></g><g id="L"><use transform="matrix(0.05,0,0,0.05,0,0)" xlink:href="#ac"/><use transform="matrix(0.05,0,0,0.05,5,0)" xlink:href="#aA"/><use transform="matrix(0.05,0,0,0.05,15,0)" xlink:href="#ak"/></g><path fill="#fff" d="M33 0v-248h34V0H33" id="aH"/><g id="M"><use transform="matrix(0.05,0,0,0.05,0,0)" xlink:href="#aH"/><use transform="matrix(0.05,0,0,0.05,5,0)" xlink:href="#an"/><use transform="matrix(0.05,0,0,0.05,15,0)" xlink:href="#at"/><use transform="matrix(0.05,0,0,0.05,25,0)" xlink:href="#ai"/><use transform="matrix(0.05,0,0,0.05,35,0)" xlink:href="#ag"/><use transform="matrix(0.05,0,0,0.05,45,0)" xlink:href="#an"/><use transform="matrix(0.05,0,0,0.05,55,0)" xlink:href="#al"/></g><g id="N"><use transform="matrix(0.05,0,0,0.05,0,0)" xlink:href="#aC"/><use transform="matrix(0.05,0,0,0.05,5,0)" xlink:href="#ai"/><use transform="matrix(0.05,0,0,0.05,15,0)" xlink:href="#au"/><use transform="matrix(0.05,0,0,0.05,18.95,0)" xlink:href="#al"/><use transform="matrix(0.05,0,0,0.05,28.950000000000003,0)" xlink:href="#ak"/><use transform="matrix(0.05,0,0,0.05,38.95,0)" xlink:href="#ae"/></g><g id="O"><use transform="matrix(0.05,0,0,0.05,0,0)" xlink:href="#ai"/><use transform="matrix(0.05,0,0,0.05,10,0)" xlink:href="#an"/></g><g id="P"><use transform="matrix(0.05,0,0,0.05,0,0)" xlink:href="#aD"/><use transform="matrix(0.05,0,0,0.05,14.950000000000001,0)" xlink:href="#ao"/></g><path fill="#fff" d="M127-220V0H93v-220H8v-28h204v28h-85" id="aI"/><g id="Q"><use transform="matrix(0.05,0,0,0.05,0,0)" xlink:href="#ax"/><use transform="matrix(0.05,0,0,0.05,10.950000000000001,0)" xlink:href="#aI"/><use transform="matrix(0.05,0,0,0.05,21.900000000000002,0)" xlink:href="#ap"/></g><g id="R"><use transform="matrix(0.05,0,0,0.05,0,0)" xlink:href="#ah"/><use transform="matrix(0.05,0,0,0.05,9,0)" xlink:href="#am"/><use transform="matrix(0.05,0,0,0.05,12.949999999999998,0)" xlink:href="#ac"/><use transform="matrix(0.05,0,0,0.05,17.95,0)" xlink:href="#ak"/></g><g id="S"><use transform="matrix(0.05,0,0,0.05,0,0)" xlink:href="#au"/><use transform="matrix(0.05,0,0,0.05,3.95,0)" xlink:href="#ai"/><use transform="matrix(0.05,0,0,0.05,13.949999999999998,0)" xlink:href="#ad"/><use transform="matrix(0.05,0,0,0.05,23.95,0)" xlink:href="#al"/><use transform="matrix(0.05,0,0,0.05,33.95,0)" xlink:href="#ah"/></g><g id="T"><use transform="matrix(0.05,0,0,0.05,0,0)" xlink:href="#aF"/><use transform="matrix(0.05,0,0,0.05,12,0)" xlink:href="#aD"/><use transform="matrix(0.05,0,0,0.05,26.950000000000003,0)" xlink:href="#aG"/></g><g id="U"><use transform="matrix(0.05,0,0,0.05,0,0)" xlink:href="#ad"/><use transform="matrix(0.05,0,0,0.05,10,0)" xlink:href="#an"/><use transform="matrix(0.05,0,0,0.05,20,0)" xlink:href="#al"/></g><g id="V"><use transform="matrix(0.05,0,0,0.05,0,0)" xlink:href="#ar"/><use transform="matrix(0.05,0,0,0.05,9,0)" xlink:href="#ae"/><use transform="matrix(0.05,0,0,0.05,14.949999999999998,0)" xlink:href="#ak"/><use transform="matrix(0.05,0,0,0.05,24.95,0)" xlink:href="#ad"/><use transform="matrix(0.05,0,0,0.05,34.95,0)" xlink:href="#ac"/><use transform="matrix(0.05,0,0,0.05,39.95,0)" xlink:href="#ak"/><use transform="matrix(0.05,0,0,0.05,49.95,0)" xlink:href="#ah"/></g><g id="W"><use transform="matrix(0.05,0,0,0.05,0,0)" xlink:href="#an"/><use transform="matrix(0.05,0,0,0.05,10,0)" xlink:href="#ak"/><use transform="matrix(0.05,0,0,0.05,20,0)" xlink:href="#aB"/></g><g id="X"><use transform="matrix(0.05,0,0,0.05,0,0)" xlink:href="#ar"/><use transform="matrix(0.05,0,0,0.05,9,0)" xlink:href="#ai"/><use transform="matrix(0.05,0,0,0.05,19,0)" xlink:href="#aj"/><use transform="matrix(0.05,0,0,0.05,33.95,0)" xlink:href="#az"/><use transform="matrix(0.05,0,0,0.05,43.95,0)" xlink:href="#ad"/><use transform="matrix(0.05,0,0,0.05,53.95,0)" xlink:href="#an"/><use transform="matrix(0.05,0,0,0.05,63.95,0)" xlink:href="#aw"/></g><g id="Y"><use transform="matrix(0.05,0,0,0.05,0,0)" xlink:href="#am"/><use transform="matrix(0.05,0,0,0.05,3.95,0)" xlink:href="#an"/></g><g id="Z"><use transform="matrix(0.05,0,0,0.05,0,0)" xlink:href="#aD"/><use transform="matrix(0.05,0,0,0.05,14.950000000000001,0)" xlink:href="#ao"/></g><g id="aa"><use transform="matrix(0.05,0,0,0.05,0,0)" xlink:href="#aE"/><use transform="matrix(0.05,0,0,0.05,12,0)" xlink:href="#an"/><use transform="matrix(0.05,0,0,0.05,22,0)" xlink:href="#al"/></g></defs></g></svg>